<svg preserveAspectRatio="none" width="100%" height="100%" overflow="visible" style="display: block;" viewBox="0 0 7.63816 6.50219" fill="none" xmlns="http://www.w3.org/2000/svg">
<g id="Group 95">
<path id="Ellipse 10" d="M1.50006 1.17868C1.93182 0.746927 2.48504 0.457197 3.08582 0.348193C3.68661 0.23919 4.30635 0.316105 4.86226 0.568663C5.41817 0.82122 5.88379 1.2374 6.1969 1.76159C6.51001 2.28579 6.65572 2.89305 6.61456 3.50226" stroke="var(--stroke-0, white)" stroke-width="0.6" stroke-linecap="round"/>
<path id="Ellipse 12" d="M7.33809 2.10009C7.20802 2.37042 6.81783 3.18144 6.60007 3.63407" stroke="var(--stroke-0, white)" stroke-width="0.6" stroke-linecap="round"/>
<path id="Ellipse 13" d="M1.03809 2.70011C0.908016 2.97044 0.517826 3.78146 0.300069 4.23409" stroke="var(--stroke-0, white)" stroke-width="0.6" stroke-linecap="round"/>
<path id="Ellipse 11" d="M6.02145 5.32351C5.58969 5.75527 5.03647 6.045 4.43569 6.154C3.8349 6.263 3.21516 6.18609 2.65925 5.93353C2.10333 5.68097 1.63772 5.2648 1.32461 4.7406C1.01149 4.2164 0.865786 3.60914 0.906952 2.99994" stroke="var(--stroke-0, white)" stroke-width="0.6" stroke-linecap="round"/>
</g>
</svg>
